<svg width="1408" height="746" viewBox="0 0 1408 746" fill="none" xmlns="http://www.w3.org/2000/svg">
<g id="road"  class="road">
<path d="M1183 237L1192.68 237.246L1197 240.5V340H1183V237Z" fill="#222C36"/>
<path d="M1185 334H1325L1322.82 339.846L1185 340V334Z" fill="#222C36"/>
<path d="M1181.5 145L1342 142V148L1181.5 145Z" fill="#222C36"/>
<path d="M1328 142H1342L1339 271H1331L1328 142Z" fill="#222C36"/>
<path d="M498 3H801V21H498V3Z" fill="#222C36"/>
<path d="M579 21H600V711H579V21Z" fill="#222C36"/>
<path d="M59 711H1259V733H59V711Z" fill="#222C36"/>
<path d="M32 430H1236V452H32V430Z" fill="#222C36"/>
<path d="M1018 452H1037V711H1018V452Z" fill="#222C36"/>
<path d="M706 22H728V259H706V22Z" fill="#222C36"/>
<path d="M600 242H706V259H600V242Z" fill="#222C36"/>
<path d="M366 452H374V711H366V452Z" fill="#222C36"/>
<path d="M374 588H579V606H374V588Z" fill="#222C36"/>
<path d="M260 594H267V711H260V594Z" fill="#222C36"/>
<path d="M267 594H367V601H267V594Z" fill="#222C36"/>
<path d="M169 157H182V431H169V157Z" fill="#222C36"/>
<path d="M480 105H579V123H480V105Z" fill="#222C36"/>
<path d="M816 271H824V431H816V271Z" fill="#222C36"/>
<path d="M760 341H816V348H760V341Z" fill="#222C36"/>
<path d="M917 452H920V481H917V452Z" fill="#222C36"/>
<path d="M920 478H982V481H920V478Z" fill="#222C36"/>
<path d="M979 481H982V486H979V481Z" fill="#222C36"/>
<path d="M979 521H984V564H979V521Z" fill="#222C36"/>
<path d="M961 559H979V564H961V559Z" fill="#222C36"/>
<path d="M984 559H1018V564H984V559Z" fill="#222C36"/>
<path d="M1107 633H1111V711H1107V633Z" fill="#222C36"/>
<path d="M1037 647H1107V654H1037V647Z" fill="#222C36"/>
<path d="M1111 668H1196V675H1111V668Z" fill="#222C36"/>
<path d="M714 585H720V711H714V585Z" fill="#222C36"/>
<path d="M851 94H858V265H851V94Z" fill="#222C36"/>
<path d="M728 170H851V179H728V170Z" fill="#222C36"/>
<path d="M1060 198.5L1066 195L1068 190.857L1071 283H1061L1060 198.5Z" fill="#222C36"/>
<path d="M1331 271H1339V325H1331V271Z" fill="#222C36"/>
<path d="M1236 430L1324.79 422.795L1326.5 431C1326.5 431 1276.31 451.426 1242.5 452C1239.96 452.043 1236 452 1236 452V430Z" fill="#222C36"/>
<path d="M1094 170.304L1098.93 164L1192.68 237.246L1187.75 243.55L1094 170.304Z" fill="#222C36"/>
<path d="M701.286 248.916L852.973 254.213L852.624 264.207L700.937 258.91L701.286 248.916Z" fill="#222C36"/>
<path d="M1192.68 237.246L1183 237V340H1197V240.5L1192.68 237.246ZM1192.68 237.246L1098.93 164L1094 170.304L1187.75 243.55L1192.68 237.246ZM1181.5 145L1342 142M1181.5 145L1342 148V142M1181.5 145L1113 150.5L1058.5 75.5L902 82L852.5 94.5C852.5 94.5 819.709 100.343 798.5 102.5C771.667 105.229 729.5 105.5 729.5 105.5M1342 142H1328L1331 271M1342 142L1339 271M1339 271H1331M1339 271V325H1331V271M1236 430H32V452H1236M1236 430V452M1236 430L1324.79 422.795L1326.5 431C1326.5 431 1276.31 451.426 1242.5 452C1239.96 452.043 1236 452 1236 452M706 259H728V22H706V259ZM706 259V242H600V259H706ZM267 594H260V711H267V594ZM267 594H367V601H267V594ZM920 481V452H917V481H920ZM920 481H982M920 481V478H982V481M982 481H979V486H982V481ZM984 564V521H979V564M984 564H979M984 564H1018V559H984V564ZM979 564V559H961V564H979ZM1235 717.5C1235 717.5 1225.14 699.919 1216.5 690.5C1208.73 682.025 1194 671.5 1194 671.5L1216.5 619M1011.5 562.5C1011.5 559.5 1000.83 552.968 1001 545C1001.13 539.232 1003.16 535.805 1007 531.5C1011.65 526.287 1023 523.5 1023 523.5M598 388.5C598 388.5 617.849 396.578 626.5 406.5C633.846 414.925 639.5 432 639.5 432M387.5 279.5C387.5 279.5 397.5 214 413.5 175C420.264 158.512 423.825 147.302 438 136.5C451.408 126.283 462.345 125.601 479 123C494.82 120.53 516 123 519.5 124.5C523 126 537.443 134.392 546.5 144C556.53 154.64 560.231 162.312 567.5 175C573.665 185.759 581.5 203.5 581.5 203.5M855.5 263C855.5 263 948.002 255.639 1002 233.5C1052 213 1111.5 151 1111.5 151M1325.5 427C1325.5 427 1318 385 1319.5 358.5C1321 332 1334 319.5 1334 319.5C1334 319.5 1350.89 346.478 1364 362C1370.69 369.918 1382 381.5 1382 381.5M1185 334H1325L1322.82 339.846L1185 340V334ZM498 3H801V21H498V3ZM579 21H600V711H579V21ZM59 711H1259V733H59V711ZM1018 452H1037V711H1018V452ZM366 452H374V711H366V452ZM374 588H579V606H374V588ZM169 157H182V431H169V157ZM480 105H579V123H480V105ZM816 271H824V431H816V271ZM760 341H816V348H760V341ZM1107 633H1111V711H1107V633ZM1037 647H1107V654H1037V647ZM1111 668H1196V675H1111V668ZM714 585H720V711H714V585ZM851 94H858V265H851V94ZM728 170H851V179H728V170ZM1060 198.5L1061 283H1071L1068 190.857L1066 195L1060 198.5ZM701.286 248.916L852.973 254.213L852.624 264.207L700.937 258.91L701.286 248.916Z" stroke="#222C36" stroke-width="6"/>
</g>
<path id="frf"  d="M22.998 165.183H44.998V186H60.998V165.183H72.998V217.183H60.998L61 199L44.498 199.183V217.183H22.998V165.183Z" fill="#956BE0"/>
<path id="frd"  d="M88 165H110V185.817H126V165H138V217H126L126.002 198.817L109.5 199V217H88V165Z" fill="#956BE0"/>
<path id="fre"  d="M88 237H110V257.817H126V237H138V289H126L126.002 270.817L109.5 271V289H88V237Z" fill="#956BE0"/>
<path id="frg"  d="M23 237H45V257.817H61V237H73V289H61L61.002 270.817L44.5 271V289H23V237Z" fill="#956BE0"/>
<path id="frc"  d="M90 316H94V310H100V313H108V316.5H120V313H128V311H134V317H139V330H134V335H128V333H120V330H108V332H100V336H94V330H90V316Z" fill="#956BE0"/>
<path id="frb"  d="M90 355H94V349H100V352H108V355.5H120V352H128V350H134V356H139V369H134V374H128V372H120V369H108V371H100V375H94V369H90V355Z" fill="#956BE0"/>
<path id="fra"  d="M90 395H94V389H100V392H108V395.5H120V392H128V390H134V396H139V409H134V414H128V412H120V409H108V411H100V415H94V409H90V395Z" fill="#956BE0"/>
<path id="hostel_k"  d="M515.5 39.5V45.5H548.5V43.5H556.5V50.5H554.5V63H543.5V56.5H512.5V69.5H499.5V56.5H469V70.5H543.5V64H554.5V74.5H556.5V82.5H549.5V80.5H465.5V82.5H456.5V75.5H458.5V51.5H456.5V43.5H463.5V45.5H495.5V39.5H515.5Z" fill="#5BACFF" stroke="#5BACFF"/>
<path id="hostel_l"  d="M780.5 28.5V36.5H793.5V34.5H802.5V64.5H789.5V51.5H757.5V65.5H802.5V67.5H796.5V71.5H790.5V77.5H756.5V72.5H750.5V68.5H745.5V49.5H742.5V34.5H754.5V38.5H768.5V28.5H780.5Z" fill="#5BACFF" stroke="#5BACFF"/>
<g id="staff_quarters" >
<path d="M866 153H880V167.5H901.5V182H866V153Z" fill="#423064"/>
<path d="M893 191H920V239H866.5V217.5H893V191Z" fill="#423064"/>
<path d="M948 133.785L969.92 119L977.159 129.732L955.239 144.517L948 133.785Z" fill="#423064"/>
<path d="M975.895 114.763L998.793 101.542L1005.27 112.753L982.367 125.973L975.895 114.763Z" fill="#423064"/>
<path d="M1005.07 98.5028L1028.19 85.6841L1034.47 97.0062L1011.34 109.825L1005.07 98.5028Z" fill="#423064"/>
<path d="M1041.68 132.379L1060.38 113.682L1073.18 126.48L1054.48 145.176L1041.68 132.379Z" fill="#423064"/>
<path d="M1027.25 117.249L1041.1 103.401L1050.85 113.152L1037 127L1027.25 117.249Z" fill="#423064"/>
<path d="M1061 148.848L1074.85 135L1084.6 144.751L1070.75 158.599L1061 148.848Z" fill="#423064"/>
<path d="M1031 183.848L1049.47 165.374L1059.23 175.125L1040.75 193.599L1031 183.848Z" fill="#423064"/>
<path d="M999.045 200.68L1023.09 190.472L1028.48 203.166L1004.43 213.375L999.045 200.68Z" fill="#423064"/>
<path d="M926.849 180.51L951.5 170.5L950 166.5L962 161.5L963.5 165.5L970 163L978.638 183.967L934.657 200.85L926.849 180.51Z" fill="#423064"/>
<path d="M981 158.865L1004.68 146.745L1002.84 142.89L1014.36 136.863L1016.2 140.718L1022.46 137.661L1032.89 157.795L990.551 178.447L981 158.865Z" fill="#423064"/>
</g>
<g id="health_centre" >
<rect id="health centre"  x="958.097" y="205.548" width="36" height="28.5207" transform="rotate(-21 958.097 205.548)" fill="#D9D9D9"/>
<g id="Group 29" >
<rect id="Rectangle 426"  x="973.535" y="203.659" width="6" height="20" transform="rotate(-21 973.535 203.659)" fill="#CE0808"/>
<rect id="Rectangle 427"  x="971.659" y="218.304" width="6" height="20" transform="rotate(-111 971.659 218.304)" fill="#CE0808"/>
</g>
</g>
<rect id="sports_office"  x="608" y="197" width="47" height="37" fill="#D9D9D9"/>
<rect id="4_tennis_courts"  x="520" y="257" width="38" height="64" fill="#D9D9D9"/>
<rect id="badminton_court"  x="559" y="257" width="16" height="64" fill="#D9D9D9"/>
<rect id="basketball_court_1"  x="606" y="279" width="25" height="39" fill="#D9D9D9"/>
<rect id="basketball_court_3"  x="680" y="279" width="16" height="28" fill="#D9D9D9"/>
<rect id="basketball_court_2"  x="660" y="279" width="16" height="28" fill="#D9D9D9"/>
<rect id="tennus_court_2"  x="661" y="314" width="16" height="28" fill="#D9D9D9"/>
<rect id="tennus_court_3"  x="680" y="315" width="16" height="28" fill="#D9D9D9"/>
<rect id="volleyball_court"  x="632" y="279" width="9" height="14" fill="#D9D9D9"/>
<rect id="volleyball_court_2"  x="642" y="279" width="9" height="14" fill="#D9D9D9"/>
<rect id="indoor_courts"  x="606" y="321" width="42" height="57" fill="#D9D9D9"/>
<rect id="swimming_pool"  x="659" y="353" width="48" height="41" fill="#D9D9D9"/>
<rect id="kravings"  x="720" y="459" width="73" height="31" fill="#EA2134"/>
<path id="tan"  d="M864 471.95H883.943L884 482.95H888V471.95H895V469.95H906V492.95H904V500.038L910 502V518H893L892 515L870 517V487H864V471.95Z" fill="#4040D2"/>
<g id="running_track" >
<path d="M193 268H210.5L205 282.5V383L210.5 391H193V268Z" fill="#D9D9D9"/>
<path d="M280 282.5C280 301.554 242.5 325 242.5 325C242.5 325 205 301.554 205 282.5C205 263.446 221.789 248 242.5 248C263.211 248 280 263.446 280 282.5Z" fill="#D9D9D9"/>
<path d="M280 379.5C280 398.554 263.211 414 242.5 414C221.789 414 205 398.554 205 379.5C205 360.446 242.5 325 242.5 325C242.5 325 280 360.446 280 379.5Z" fill="#D9D9D9"/>
<path d="M205 282H280V383H205V282Z" fill="#D9D9D9"/>
</g>
<path id="oat"  d="M362 290L384.5 309L389.5 324.5L388.5 347.5V363L381 374L379 372.5L383 364.5L365.5 355.5L361.5 361.5L357 358L363 350.5L358.5 346.5L350.5 354.5L334.5 337.5L343 331.5L338.5 326.5L331 331L322 308L362 290Z" fill="#A36735"/>
<path id="cos"  d="M307 303L316 298.5L330.5 332.5L338 328L341 331L333 337L350.5 355.5L358 348.5L361.5 351L355 358.5L362 363L365.5 357.5L380.5 365L378 372L380.5 375.5L373 387C373 387 349.5 376.5 330.5 350C311.5 323.5 307 303 307 303Z" fill="#59013B"/>
<rect id="shiv_mandir"  x="313" y="511" width="48" height="34" fill="#D9A762"/>
<rect id="gurudwara"  x="312" y="548" width="50" height="34" fill="#D9A762"/>
<ellipse id="cricket_field"  cx="487.5" cy="191" rx="63.5" ry="61" fill="#92D178"/>
<path id="hostel_d"  d="M92.5 617.5V622.5H125.5V632.5H123.5V678.5H110.5V674.5H105.5V679.5H92.5V674.5H87.5V673.5H92.5V668.5H105.5V673.5H110.5V668.5H111.5V633.5H97.5V631.5H90.5537L90.5029 631.943L86.5029 666.943L86.5 666.972V682.5H76.5V667.026L82.4434 617.5H92.5Z" fill="#5BACFF" stroke="#5BACFF"/>
<path id="hostel_o"  d="M306.5 615.5V620.5H339.5V630.5H337.5V676.5H324.5V672.5H319.5V677.5H306.5V672.5H301.5V671.5H306.5V666.5H319.5V671.5H324.5V666.5H325.5V631.5H311.5V629.5H304.554L304.503 629.943L300.503 664.943L300.5 664.972V680.5H290.5V665.026L296.443 615.5H306.5Z" fill="#5BACFF" stroke="#5BACFF"/>
<path id="hostel_a"  d="M517.5 615.5V620.5H550.5V630.5H548.5V676.5H535.5V672.5H530.5V677.5H517.5V672.5H512.5V671.5H517.5V666.5H530.5V671.5H535.5V666.5H536.5V631.5H522.5V629.5H515.554L515.503 629.943L511.503 664.943L511.5 664.972V680.5H501.5V665.026L507.443 615.5H517.5Z" fill="#5BACFF" stroke="#5BACFF"/>
<path id="hostel_q"  d="M736 656L742 606H753V611H786V622H784V668H770V664H766V669H752V664H747V662H752V657H766V662H770V657H771V623H757V621H751L747 656V672H736V656Z" fill="#EF5E96"/>
<path id="hostel_c"  d="M198.5 673.262V675.5H206.5V673.821L207.5 673.891V680.5H195.5V673.052L198.5 673.262ZM236.5 675.5H236.098L236.105 675.391L236.5 669.749V675.5ZM235.7 666.842L235.142 674.822L231.5 674.567V666.548L235.7 666.842ZM205.5 673.751V674.5H199.5V673.332L205.5 673.751ZM230.5 666.478V674.497L208.5 672.959V671.5H206.5V664.8L230.5 666.478ZM207.5 672.5V672.889L206.5 672.819V672.5H207.5ZM205.5 672.5V672.749L201.93 672.5H205.5ZM198.5 664.24V671.5H194.5V671.98L181.5 671.071V663.052L198.5 664.24ZM205.5 664.729V671.5H199.5V664.311L205.5 664.729ZM180.5 662.981V670.5H173.535L174.092 662.533L180.5 662.981ZM236.5 650.5V665.895L236.27 665.879L231.5 665.545V650.5H236.5ZM201.5 644.5V649.5H205.5V663.727L199.5 663.308V644.5H201.5ZM180.5 620.5V661.979L173.663 661.501L173.5 661.489V652.5H178.5V647.5H175.5V644.5H178.5V640.5H175.5V628.5H179.5V625.5H177.5V620.5H180.5ZM198.5 645.5V651.5H181.5V645.5H198.5ZM244.5 641.5V649.5H210.5V641.5H244.5ZM208.5 620.5V627.5H209.5V648.5H206.5V643.5H202.5V629.5H203.5V620.5H208.5ZM205.5 644.5V648.5H202.5V644.5H205.5ZM245.5 627.309V640.5H227.5V627.5H236.63L236.743 627.438L241.013 625.065L245.5 627.309ZM201.5 621.5V628.5H181.5V621.5H201.5ZM233.5 622.442V626.5H210.5V619.683L233.5 622.442Z" fill="#5BACFF" stroke="#5BACFF"/>
<path id="hostel_b"  d="M415.507 670.515L415.68 670.533V670.534L416.177 670.586L416.675 670.639V670.638L422.641 671.265L421.909 678.227L409.975 676.973L410.707 670.011L415.507 670.515ZM445.24 667.607L445.646 667.65L458.076 668.956L457.345 675.918L423.531 672.364L423.688 670.873L424.263 665.402L445.24 667.607ZM427.972 620.544L422.831 669.462L422.745 670.271L416.778 669.644L418.974 648.759L419.026 648.262L419.025 648.261L419.862 640.306L419.915 639.809L419.914 639.808L421.482 624.89L425.958 625.36L426.455 625.413L426.508 624.916L426.978 620.439L427.972 620.544ZM416.516 662.577L415.939 668.066L415.784 669.539L415.538 669.514L410.058 668.938L409.817 668.912H409.816L395.894 667.448L396.625 660.486L416.516 662.577ZM458.913 661L458.181 667.962L458.028 667.946L446.247 666.707L446.979 659.746L458.913 661ZM400.125 617.617L397.136 646.066L395.735 659.388L395.684 659.886L394.899 667.344L388.932 666.717L394.158 616.99L400.125 617.617ZM449.386 655.977L449.072 658.96L447.083 658.751L447.396 655.768L449.386 655.977ZM450.849 642.054L449.49 654.982L446.923 654.713L446.507 654.669H446.506L440.539 654.042L441.062 649.069L446.532 649.645L447.029 649.696L447.082 649.199L447.865 641.74L450.849 642.054ZM446.871 641.636L446.14 648.597L441.166 648.074L441.898 641.113L446.871 641.636ZM440.904 641.009L440.172 647.97L426.249 646.507L426.98 639.545L440.904 641.009ZM418.815 640.697L418.715 641.661L418.084 647.659L398.193 645.568L398.654 641.19L398.925 638.607L418.815 640.697ZM425.983 620.335L425.564 624.313L421.587 623.896L422.005 619.917L425.983 620.335ZM421.011 619.812L420.593 623.791L400.702 621.7L401.12 617.722L421.011 619.812Z" fill="#5BACFF" stroke="#5BACFF"/>
<path id="hostel_m"  d="M222.5 564.365V577.5H185.5V559.776L193.068 555.046L222.5 564.365ZM235.65 517.5L246.434 546.91L241.257 553.5H222.5V517.5H235.65ZM196.5 542.5V550.5H188.5V542.522L188.606 542.556L188.676 542.5H196.5ZM195.5 517.5V535.759L188.393 541.444L159.5 532.629V517.5H195.5ZM221.5 487.263V505.5H184.5V492.849L213.93 482.058L221.5 487.263Z" fill="#5BACFF" stroke="#5BACFF"/>
<g id="hostel_j" >
<path id="Vector 12"  d="M412 490L420 494.5L418.015 508M413.5 573.5L421.5 569.5L418.924 553.25M418.015 508L406 506M418.015 508L415.809 523M415.809 523C415.809 523 415.059 526.33 415 528.5C414.908 531.86 416.348 537 416.348 537M415.809 523L403.5 521.5M416.348 537L403.5 539.5M416.348 537L418.924 553.25M418.924 553.25L409 555.5M450 490L440.5 494.5L444.404 509.5M444.404 509.5L445.25 512.75L448.699 526M444.404 509.5L456.5 508M448.699 526L450 531L448.025 541M448.699 526L459.5 525M448.025 541H461.5M448.025 541L445.012 556.25M445.012 556.25L442.5 571L452.5 573.5M445.012 556.25L456.5 558" stroke="#5BACFF" stroke-width="5"/>
<path id="Vector"  d="M438.898 527.5C437.988 529.28 436.137 530.5 434 530.5C431.863 530.5 430.012 529.28 429.102 527.5H438.898ZM427.521 524.5C427.508 524.665 427.5 524.832 427.5 525C427.5 525.516 427.562 526.018 427.676 526.5H416.5V524.5H427.521ZM434 519.5C436.517 519.5 438.639 521.192 439.292 523.5H428.708C429.361 521.192 431.483 519.5 434 519.5ZM428.5 525C428.5 524.831 428.509 524.665 428.523 524.5H439.477C439.491 524.665 439.5 524.831 439.5 525C439.5 525.52 439.427 526.023 439.292 526.5H428.708C428.573 526.023 428.5 525.52 428.5 525ZM440.5 525C440.5 524.832 440.492 524.665 440.479 524.5H447.5V526.5H440.324C440.438 526.018 440.5 525.516 440.5 525Z" fill="#5BACFF" stroke="#5BACFF"/>
</g>
<path id="hostel_h"  d="M540.857 551.5L558.075 562.322L561.406 573.269L553.546 577.892L534.816 562.612L534.678 562.5H518.766L518.616 562.68L516.253 565.515L494.5 566.965V560.644L500.275 551.5H540.857ZM531.5 543.5V550.5H527.5V543.5H531.5ZM536.75 511.5L542.5 519.167V533.355L536.725 542.5H532.5V511.5H536.75ZM531.5 511.5V542.5H527.5V511.5H531.5ZM526.5 511.5V542.5H514V526H516.5V511.5H526.5ZM531.5 504.5V510.5H527.5V504.5H531.5ZM558.406 481.73L555.075 492.677L537.857 503.5H497.275L491.5 494.355V488.034L513.253 489.484L515.616 492.32L515.766 492.5H531.678L531.816 492.388L550.546 477.107L558.406 481.73Z" fill="#5BACFF" stroke="#5BACFF"/>
<rect id="just_food"  x="555.883" y="544" width="16" height="12" transform="rotate(35 555.883 544)" fill="#EA2134"/>
<path id="hostel_pg"  d="M615 598H633H696V616H687V654.5H696V669L633 671V654.5H673.5V616H633V654.5V671H615V598Z" fill="#EF5E96"/>
<path id="fete_area"  d="M399 257H516V329.5H563V406L552.5 420H399V257Z" fill="#92D178"/>
<path id="nirvana"  d="M609 459H719V491H794.5V459H816.5V527H899V610H971V637H919V702H809V583H717L609 584V459Z" fill="#92D178"/>
<path id="hostel_e"  d="M736 291H752V289H768V286H777V289H793V292H801V295H805V303H800V300H792L787 297H758V307H763V317H757V326H787V297L792 300V307L797 312L792 317V322H799V320H804V328H800V331H791V333H775V336H767V333H751V331H735V328H731V320H734V323H753V317H749V314H742V318H731V304H742V309H749V307H754V299H735V301H732V293H736V291Z" fill="#EF5E96"/>
<path id="hostel_g"  d="M736 373H752V371H768V368H777V371H793V374H801V377H805V385H800V382H792L787 379H758V389H763V399H757V408H787V379L792 382V389L797 394L792 399V404H799V402H804V410H800V413H791V415H775V418H767V415H751V413H735V410H731V402H734V405H753V399H749V396H742V400H731V386H742V391H749V389H754V381H735V383H732V375H736V373Z" fill="#EF5E96"/>
<path id="hostel_i"  d="M863 289H891V301H874V305H897V315H899V322H890V315H848V329H890V322H899V329H897V341H843V327H841V317H843V305H869V301H853V294H863V289Z" fill="#EF5E96"/>
<path id="hostel_n"  d="M835 369H903V396H894V392H898V378H878V384H868V378H865V380H850V378H838V385H841V400H838V408H853V401H864V408H867V405H891V408H898V401H894V396H903V414H835V369Z" fill="#EF5E96"/>
<rect id="g_block_canteen"  x="903" y="548" width="53" height="58" fill="#D9D9D9"/>
<rect id="stationary_shop"  x="978" y="574" width="34" height="63" fill="#D9D9D9"/>
<path id="g_block"  d="M937 461H1004V473H987V487H1006V496H1001V505H985V512H988V526H966V512H977V502H936V487H960V494H963V487H976V489H984V475H977V472H960V475H937V461Z" fill="#32A432"/>
<path id="lp101_104"  d="M917 411L947 401H985V426H917V411Z" fill="#EE5064"/>
<path id="library"  d="M1006 414L1066 391L1093 398.5V426H1006V414Z" fill="#EE5064"/>
<path id="lt"  d="M964 341H1022V363L982 379.5L964 367.5V341Z" fill="#EE5064"/>
<rect id="waterbody_cafe"  x="1047" y="356" width="10" height="28" fill="#EE5064"/>
<ellipse id="waterbody"  cx="1033" cy="373.5" rx="8" ry="7.5" fill="#8DB3D8"/>
<rect id="lp105_107"  x="993" y="392.581" width="32.1354" height="16" transform="rotate(-25 993 392.581)" fill="#EE5064"/>
<path id="cs_block"  d="M954 272H1022V306L1007.5 313.5L954 295V272Z" fill="#EE5064"/>
<rect id="activity_space"  x="956.512" y="303" width="45" height="20" transform="rotate(19 956.512 303)" fill="#EE5064"/>
<path id="lp108_111"  d="M1047 280.5L1101 293V312H1047V280.5Z" fill="#EE5064"/>
<rect id="sbop_lawns"  x="975" y="643" width="39" height="61" fill="#92D178"/>
<rect id="main_audi"  x="1044" y="660" width="51" height="43" fill="#A36735"/>
<rect id="jaggi"  x="1065" y="582" width="38" height="62" fill="#EA2134"/>
<rect id="post_office"  x="1042" y="582" width="19" height="59" fill="#D9D9D9"/>
<rect id="aahar"  x="1172" y="555" width="31" height="27" fill="#EA2134"/>
<rect id="h_block"  x="1239" y="539.499" width="20" height="42" transform="rotate(-13 1239 539.499)" fill="#32A432"/>
<g id="d_block" >
<path d="M1060 460H1103V474H1057V470H1060V460Z" fill="#4040D2"/>
<path d="M1171 462V478H1142V473H1139V475H1132V470H1138V462H1171Z" fill="#4040D2"/>
</g>
<path id="c_block"  d="M1056 481H1076V495H1079V499H1183V513H1172V517H1140V513H1055V503H1060V500H1071V495H1056V481Z" fill="#4040D2"/>
<path id="b_block"  d="M1057 539H1186V552H1167V556H1138V552H1057V559H1054V552H1049V543H1057V539Z" fill="#4040D2"/>
<g id="f_block" >
<rect id="Rectangle 420"  x="1200.35" y="463.691" width="11" height="12" transform="rotate(48 1200.35 463.691)" fill="#4040D2"/>
<rect id="Rectangle 421"  x="1214.47" y="464.431" width="11" height="12" transform="rotate(48 1214.47 464.431)" fill="#4040D2"/>
<rect id="Rectangle 422"  x="1213.73" y="478.554" width="11" height="12" transform="rotate(48 1213.73 478.554)" fill="#4040D2"/>
<rect id="Rectangle 423"  x="1199.61" y="477.814" width="11" height="12" transform="rotate(48 1199.61 477.814)" fill="#4040D2"/>
<rect id="Rectangle 424"  x="1190" y="473" width="10" height="12" fill="#4040D2"/>
</g>
<g id="e_block" >
<rect id="Rectangle 420_2"  x="1201.35" y="508.696" width="11" height="12" transform="rotate(48 1201.35 508.696)" fill="#4040D2"/>
<rect id="Rectangle 421_2"  x="1215.48" y="509.437" width="11" height="12" transform="rotate(48 1215.48 509.437)" fill="#4040D2"/>
<rect id="Rectangle 422_2"  x="1214.74" y="523.56" width="11" height="12" transform="rotate(48 1214.74 523.56)" fill="#4040D2"/>
<rect id="Rectangle 423_2"  x="1200.61" y="522.819" width="11" height="12" transform="rotate(48 1200.61 522.819)" fill="#4040D2"/>
<rect id="Rectangle 424_2"  x="1191" y="518.005" width="10" height="12" fill="#4040D2"/>
</g>
<rect id="cd_corridor"  x="1142" y="478" width="9" height="21" fill="#4040D2"/>
<rect id="bc_corridor"  x="1142" y="517" width="9" height="22" fill="#4040D2"/>
<path id="directorate"  d="M1140 556H1150V585H1158.5V581.5C1158.5 581.5 1165.05 582.517 1169 584C1172.92 585.475 1178.5 589 1178.5 589L1171.5 601H1119.5V585.5H1140V556Z" fill="#4040D2"/>
<path id="mechanical_workshop"  d="M1127 390H1182V404H1188V411H1197V406H1205V390H1277V420H1127V390Z" fill="#32A432"/>
<rect id="cd_corridor_2"  x="1083" y="474" width="15" height="25" fill="#4040D2"/>
<rect id="bc_corridor_2"  x="1082" y="513" width="14" height="27" fill="#4040D2"/>
<path id="garden"  d="M265 462H362V510H311L309.5 583H265V462Z" fill="#92D178"/>
<path id="dean_office"  d="M1069 317H1127L1137 327V341H1069V317Z" fill="#A36735"/>
<path id="garden_2"  d="M188 116H393V228H383.5V266.5H301V228H188V116Z" fill="#92D178"/>
<g id="venture_lab" >
<path d="M1248 278H1301V311H1248V278Z" fill="#32A432"/>
<path d="M1201 263H1248V323H1201V263Z" fill="#32A432"/>
</g>
<g id="tslas" >
<path d="M1234 224H1319V256H1234V224Z" fill="#A36735"/>
<path d="M1249 187H1255V224H1249V187Z" fill="#A36735"/>
<path d="M1237 168H1261V187H1237V168Z" fill="#A36735"/>
<path d="M1261 177H1267V184H1261V177Z" fill="#A36735"/>
<path d="M1267 172H1324V192H1267V172Z" fill="#A36735"/>
<path d="M1231 190H1249V195H1231V190Z" fill="#A36735"/>
</g>
<rect id="tslas_canteen"  x="1210" y="158" width="15" height="14" fill="#EA2134"/>
<rect id="main_gate"  x="1265" y="697" width="24" height="48" fill="black" stroke="#D04152" stroke-width="2"/>
<rect id="gate_3"  x="1" y="418" width="24" height="48" fill="black" stroke="#D04152" stroke-width="2"/>
<rect id="gate_2"  x="1374.41" y="394.086" width="24" height="21" transform="rotate(-44 1374.41 394.086)" fill="black" stroke="#D04152" stroke-width="2"/>
<rect id="polytechnic_gate"  x="886.063" y="79.3348" width="11.6251" height="12.3744" transform="rotate(-105 886.063 79.3348)" fill="black" stroke="#D04152" stroke-width="2"/>
</svg>
